<svg xmlns="http://www.w3.org/2000/svg" xmlns:xlink="http://www.w3.org/1999/xlink" width="1920" zoomAndPan="magnify" viewBox="0 0 1440 809.999993" height="1080" preserveAspectRatio="xMidYMid meet" version="1.0"><defs><clipPath id="ff0bd912ef"><path d="M 0 141.453125 L 451.265625 141.453125 L 451.265625 642 L 0 642 Z M 0 141.453125 " clip-rule="nonzero"/></clipPath><clipPath id="cda5fad603"><path d="M 91 494 L 717 494 L 717 810 L 91 810 Z M 91 494 " clip-rule="nonzero"/></clipPath><clipPath id="764c003d83"><path d="M 162.964844 1174.433594 L 45.726562 534.839844 L 641.058594 425.714844 L 758.296875 1065.308594 Z M 162.964844 1174.433594 " clip-rule="nonzero"/></clipPath><clipPath id="5fb4619454"><path d="M 162.964844 1174.433594 L 45.726562 534.839844 L 641.058594 425.714844 L 758.296875 1065.308594 Z M 162.964844 1174.433594 " clip-rule="nonzero"/></clipPath></defs><path fill="#0c5f52" d="M 168.886719 -364.441406 C 192 -364.441406 214.1875 -360.09375 235.027344 -349.917969 C 266.617188 -334.480469 287.992188 -309.777344 300.28125 -277.011719 C 305.773438 -262.367188 308.933594 -247.152344 311.460938 -231.796875 C 314.109375 -215.808594 315.886719 -199.660156 319.503906 -183.8125 C 323.097656 -168.042969 328.789062 -153.199219 338.46875 -140.097656 C 346.746094 -128.910156 356.980469 -119.722656 368.042969 -111.402344 C 379.421875 -102.824219 391.453125 -95.257812 403.402344 -87.550781 C 417.3125 -78.578125 431.238281 -69.605469 444.140625 -59.171875 C 459.550781 -46.71875 473.238281 -32.707031 483.433594 -15.554688 C 497.460938 8.082031 501.984375 33.457031 497.144531 60.492188 C 491.59375 91.539062 476.5 117.210938 453.265625 138.277344 C 440.425781 149.9375 426.042969 159.34375 410.792969 167.464844 C 396.171875 175.253906 380.882812 181.617188 365.828125 188.472656 C 357.828125 192.109375 350.0625 196.160156 342.695312 200.984375 C 328.75 210.132812 318.988281 222.582031 312.925781 238.058594 C 308.894531 248.335938 306.34375 259.027344 304.152344 269.816406 C 300.933594 285.707031 298.542969 301.773438 294.828125 317.582031 C 290.757812 334.953125 285.363281 351.871094 276.691406 367.5625 C 265.3125 388.152344 249.609375 404.359375 228.210938 414.617188 C 211.222656 422.757812 193.304688 426.097656 174.496094 424.617188 C 145.890625 422.363281 121.867188 410.347656 101.460938 390.566406 C 89.984375 379.417969 80.699219 366.535156 71.988281 353.214844 C 65.113281 342.699219 58.632812 331.929688 50.988281 321.949219 C 47.113281 316.910156 42.90625 312.1875 38.027344 308.097656 C 27.675781 299.402344 15.546875 295.308594 2.25 294.382812 C -9.683594 293.550781 -21.496094 294.695312 -33.25 296.691406 C -52.53125 299.953125 -71.4375 304.992188 -90.460938 309.359375 C -105.398438 312.800781 -120.390625 315.941406 -135.664062 317.484375 C -151.328125 319.0625 -166.957031 319.144531 -182.34375 315.070312 C -194.730469 311.792969 -205.773438 306.058594 -214.46875 296.457031 C -224.464844 285.390625 -228.808594 272.109375 -229.34375 257.425781 C -229.917969 241.792969 -226.042969 227.03125 -220.316406 212.664062 C -213.28125 194.996094 -203.503906 178.867188 -192.875 163.199219 C -182.246094 147.566406 -170.667969 132.625 -159.746094 117.210938 C -153.105469 107.863281 -146.667969 98.414062 -141.117188 88.375 C -136.355469 79.78125 -132.34375 70.90625 -130.546875 61.164062 C -128.648438 50.90625 -129.796875 41.046875 -134.101562 31.539062 C -137.953125 23.042969 -143.507812 15.710938 -149.589844 8.714844 C -155.792969 1.578125 -162.53125 -5.058594 -169.207031 -11.742188 C -178.316406 -20.871094 -187.480469 -29.941406 -195.699219 -39.921875 C -203.285156 -49.152344 -209.964844 -58.953125 -214.546875 -70.058594 C -223.652344 -92.09375 -221.875 -113.515625 -210.574219 -134.269531 C -202.101562 -149.800781 -189.851562 -161.976562 -175.707031 -172.3125 C -160.160156 -183.695312 -143.089844 -192.132812 -124.679688 -197.785156 C -117.863281 -199.878906 -110.75 -200.648438 -103.679688 -201.222656 C -85.683594 -202.644531 -68.355469 -206.617188 -52.195312 -214.917969 C -40.363281 -221.003906 -31.097656 -230.015625 -23.511719 -240.789062 C -14.5625 -253.515625 -6.246094 -266.675781 3.59375 -278.75 C 31.960938 -313.535156 66.574219 -339.621094 109.34375 -354.203125 C 128.664062 -360.785156 148.460938 -364.421875 168.886719 -364.441406 Z M 168.828125 -348.394531 C 145.792969 -348.472656 123.84375 -343.414062 102.6875 -334.660156 C 65.703125 -319.382812 35.953125 -294.796875 11.753906 -263.21875 C 4.441406 -253.671875 -1.957031 -243.515625 -8.675781 -233.554688 C -14.738281 -224.582031 -21.496094 -216.183594 -30.109375 -209.503906 C -51.605469 -192.824219 -76 -184.167969 -103.183594 -183.457031 C -110.890625 -183.257812 -118.457031 -182.132812 -125.824219 -179.898438 C -140.304688 -175.492188 -153.601562 -168.675781 -165.828125 -159.78125 C -176.714844 -151.894531 -186.335938 -142.726562 -193.703125 -131.382812 C -199.355469 -122.6875 -203.128906 -113.261719 -204.078125 -102.84375 C -205.222656 -90.199219 -201.804688 -78.636719 -195.660156 -67.746094 C -189.554688 -56.898438 -181.574219 -47.53125 -173.078125 -38.539062 C -162.628906 -27.472656 -151.449219 -17.074219 -141.175781 -5.832031 C -134.792969 1.164062 -128.769531 8.417969 -123.910156 16.578125 C -114.128906 33.003906 -111.027344 50.433594 -115.925781 69.128906 C -118.59375 79.324219 -122.980469 88.773438 -128.15625 97.882812 C -136.136719 111.914062 -145.5625 124.996094 -155.082031 138 C -166.304688 153.335938 -177.761719 168.511719 -187.855469 184.660156 C -196.488281 198.453125 -204.097656 212.761719 -209.015625 228.355469 C -212.628906 239.816406 -214.566406 251.476562 -212.789062 263.511719 C -211.40625 272.800781 -207.710938 280.960938 -200.894531 287.5625 C -195.027344 293.273438 -187.9375 296.851562 -180.152344 299.125 C -165.910156 303.253906 -151.386719 303.035156 -136.828125 301.535156 C -121.675781 299.972656 -106.800781 296.753906 -91.964844 293.3125 C -71.636719 288.589844 -51.464844 283.195312 -30.78125 280.132812 C -17.425781 278.15625 -4.050781 277.226562 9.402344 279.085938 C 24.632812 281.179688 38.222656 286.96875 49.820312 297.226562 C 57.464844 303.984375 63.667969 311.949219 69.457031 320.269531 C 77.519531 331.871094 84.667969 344.042969 92.828125 355.585938 C 101.738281 368.175781 111.675781 379.792969 124.121094 389.0625 C 144.6875 404.398438 167.761719 411.316406 193.304688 408.351562 C 218.394531 405.445312 238.585938 393.410156 253.953125 373.390625 C 264.246094 359.972656 270.667969 344.636719 275.449219 328.550781 C 280.683594 310.941406 283.527344 292.800781 286.90625 274.796875 C 289.492188 261.023438 292.398438 247.347656 297.335938 234.164062 C 304.863281 214.007812 317.488281 198.019531 335.742188 186.515625 C 343.941406 181.359375 352.574219 177.03125 361.363281 173.019531 C 373.496094 167.503906 385.78125 162.367188 397.695312 156.339844 C 412.726562 148.730469 426.972656 139.976562 439.773438 128.96875 C 458.796875 112.585938 472.351562 92.664062 479.066406 68.335938 C 482.917969 54.347656 484.125 40.15625 481.851562 25.75 C 479.421875 10.375 473.101562 -3.320312 464.09375 -15.871094 C 453.9375 -30.019531 441.195312 -41.542969 427.347656 -51.9375 C 413.203125 -62.550781 398.148438 -71.816406 383.3125 -81.421875 C 368.675781 -90.929688 354.253906 -100.730469 341.492188 -112.765625 C 328.964844 -124.582031 318.929688 -138.140625 312.191406 -154.070312 C 306.523438 -167.46875 303.261719 -181.5 300.792969 -195.769531 C 298.1875 -210.886719 296.429688 -226.125 293.484375 -241.183594 C 290.34375 -257.171875 285.898438 -272.722656 278.15625 -287.171875 C 266.203125 -309.480469 248.71875 -325.984375 225.722656 -336.535156 C 207.648438 -344.835938 188.582031 -348.394531 168.789062 -348.316406 Z M 168.828125 -348.394531 " fill-opacity="1" fill-rule="nonzero"/><g clip-path="url(#ff0bd912ef)"><path fill="#00bf63" d="M 283.292969 141.863281 C 301.578125 141.804688 320.371094 144.078125 338.867188 148.765625 C 362.34375 154.722656 383.644531 165.222656 403.113281 179.570312 C 410.308594 184.871094 417.15625 190.597656 423.4375 196.96875 C 431.851562 205.484375 438.121094 215.371094 442.34375 226.574219 C 444.957031 233.476562 447.339844 240.449219 448.605469 247.753906 C 449.421875 252.523438 449.917969 257.328125 450.285156 262.148438 C 450.609375 266.308594 450.941406 270.476562 451.09375 274.660156 C 451.289062 280.101562 450.355469 285.425781 449.007812 290.691406 C 446.742188 299.550781 443.023438 307.847656 439.261719 316.125 C 433.921875 327.855469 427.476562 338.996094 421.296875 350.277344 C 414.761719 362.230469 408.535156 374.316406 404.390625 387.351562 C 401.628906 396.050781 399.824219 404.921875 399.109375 414.050781 C 398.0625 427.464844 399.996094 440.519531 403.320312 453.449219 C 406.683594 466.484375 411.296875 479.101562 415.867188 491.742188 C 421.136719 506.308594 426.40625 520.875 429.824219 536.027344 C 432.035156 545.789062 433.589844 555.628906 433.761719 565.699219 C 433.96875 577.800781 432.550781 589.578125 427.855469 600.8125 C 422.527344 613.558594 413.839844 623.445312 402.042969 630.554688 C 392.433594 636.351562 381.90625 639.472656 370.835938 640.972656 C 356.117188 642.964844 341.617188 641.527344 327.230469 638.265625 C 313.523438 635.152344 300.476562 630.152344 287.632812 624.5625 C 276.527344 619.734375 265.59375 614.480469 254.363281 609.960938 C 240.65625 604.441406 226.640625 600.085938 211.953125 598.023438 C 204.660156 597 197.328125 596.363281 189.964844 596.089844 C 184.3125 595.878906 178.671875 595.617188 173.023438 595.742188 C 162.875 595.960938 152.722656 596.226562 142.574219 596.46875 C 131.351562 596.734375 120.144531 596.515625 108.945312 595.777344 C 101.097656 595.257812 93.308594 594.417969 85.539062 593.21875 C 69.601562 590.753906 54.191406 586.511719 39.667969 579.367188 C 30.140625 574.675781 21.300781 568.894531 13.695312 561.425781 C 4.257812 552.171875 -2.578125 541.351562 -5.351562 528.226562 C -6.6875 521.921875 -6.949219 515.5625 -6.363281 509.15625 C -5.179688 496.179688 -0.957031 484.066406 4.003906 472.152344 C 8.480469 461.402344 13.683594 450.984375 18.550781 440.429688 C 24.386719 427.773438 29.96875 415.019531 34.246094 401.730469 C 38.023438 390.011719 40.644531 378.015625 42.523438 365.859375 C 44.316406 354.195312 45.527344 342.464844 47 330.769531 C 48.828125 316.214844 51.105469 301.742188 55.203125 287.601562 C 61.316406 266.515625 70.726562 247.109375 84.285156 229.765625 C 95.839844 214.992188 109.488281 202.453125 124.734375 191.632812 C 149.570312 174.015625 176.820312 161.546875 206.039062 153.203125 C 217.925781 149.816406 229.953125 147.039062 242.164062 145.113281 C 250.484375 143.8125 258.851562 142.878906 267.273438 142.359375 C 272.347656 142.046875 277.414062 142.003906 283.28125 141.898438 Z M 173.113281 583.917969 C 186.050781 583.851562 198.066406 584.289062 210.023438 585.773438 C 221.011719 587.144531 231.75 589.601562 242.289062 592.964844 C 257.527344 597.839844 271.992188 604.605469 286.550781 611.125 C 298.277344 616.382812 310.117188 621.359375 322.535156 624.816406 C 335.699219 628.480469 349.039062 630.578125 362.757812 629.792969 C 370.238281 629.367188 377.554688 628.136719 384.609375 625.644531 C 402.160156 619.457031 414.058594 607.703125 419.261719 589.625 C 422.460938 578.503906 422.5625 567.117188 421.285156 555.722656 C 419.984375 544.128906 417.144531 532.859375 413.679688 521.726562 C 410.734375 512.253906 407.316406 502.953125 403.953125 493.621094 C 399.433594 481.058594 394.957031 468.476562 391.617188 455.523438 C 387.867188 440.96875 386.082031 426.265625 387.441406 411.214844 C 388.5 399.449219 391.363281 388.144531 395.425781 377.105469 C 399.996094 364.671875 406.234375 353.054688 412.621094 341.496094 C 419.398438 329.238281 426.210938 316.988281 431.6875 304.058594 C 435.40625 295.289062 437.660156 286.195312 438.054688 276.679688 C 438.339844 269.636719 438.558594 262.574219 437.628906 255.554688 C 436.972656 250.601562 436.351562 245.597656 434.636719 240.898438 C 431.207031 231.515625 427.8125 222.136719 421.953125 213.839844 C 419.480469 210.335938 416.890625 206.996094 413.828125 204.035156 C 405.449219 195.910156 396.3125 188.742188 386.507812 182.425781 C 375.242188 175.179688 363.367188 169.140625 350.71875 164.703125 C 339.96875 160.921875 328.933594 158.285156 317.679688 156.464844 C 308.863281 155.046875 299.992188 154.171875 291.09375 153.765625 C 279.058594 153.226562 267.03125 153.871094 255.0625 155.230469 C 244.085938 156.464844 233.234375 158.445312 222.496094 161.039062 C 199.480469 166.582031 177.363281 174.488281 156.484375 185.78125 C 141.8125 193.71875 128.003906 202.890625 115.484375 213.964844 C 105.253906 223.011719 96.046875 232.96875 88.277344 244.226562 C 75.125 263.289062 67.160156 284.46875 62.660156 307.054688 C 60.140625 319.671875 58.714844 332.464844 57.21875 345.230469 C 55.964844 355.972656 54.605469 366.699219 52.625 377.324219 C 49.242188 395.453125 43.582031 412.863281 36.285156 429.769531 C 30.863281 442.339844 24.847656 454.636719 19.136719 467.070312 C 15.097656 475.863281 11.324219 484.769531 8.632812 494.082031 C 6.179688 502.539062 4.613281 511.113281 5.433594 520.007812 C 5.960938 525.714844 7.355469 531.140625 9.804688 536.292969 C 14.0625 545.210938 20.507812 552.332031 28.230469 558.347656 C 37.425781 565.527344 47.722656 570.65625 58.691406 574.480469 C 77.496094 581.039062 97.023438 583.433594 116.773438 584.324219 C 125.53125 584.714844 134.296875 584.519531 143.054688 584.472656 C 153.378906 584.414062 163.679688 583.746094 173.105469 583.894531 Z M 173.113281 583.917969 " fill-opacity="1" fill-rule="nonzero"/></g><g clip-path="url(#cda5fad603)"><g clip-path="url(#764c003d83)"><g clip-path="url(#5fb4619454)"><path fill="#0c5f52" d="M 506.867188 1108.722656 C 473.058594 1117.160156 439.886719 1120.167969 406.242188 1117.941406 C 370.707031 1115.589844 336.546875 1107.46875 303.753906 1093.648438 C 273.582031 1080.9375 246.199219 1063.742188 221.609375 1042.113281 C 190.886719 1015.101562 165.761719 983.546875 145.402344 948.121094 C 135.9375 931.660156 127.742188 914.589844 120.730469 896.96875 C 115.175781 883.007812 110.375 868.78125 106.351562 854.285156 C 104 845.820312 101.9375 837.304688 100.097656 828.730469 C 96.542969 812.160156 94.175781 795.398438 92.925781 778.480469 C 91.019531 752.757812 91.6875 727.128906 95.394531 701.585938 C 101.152344 661.875 114.417969 624.980469 136.617188 591.449219 C 154.171875 564.949219 175.746094 542.3125 202.140625 524.40625 C 215.128906 515.59375 228.914062 508.3125 243.675781 503.019531 C 267.464844 494.503906 291.773438 492.273438 316.558594 497.847656 C 337.828125 502.640625 356.183594 512.925781 372.101562 527.71875 C 386.375 540.976562 397.40625 556.667969 406.179688 573.976562 C 416.570312 594.457031 422.90625 616.277344 427.351562 638.742188 C 431.570312 660.042969 433.949219 681.570312 435.589844 703.183594 C 436.789062 718.964844 437.128906 734.777344 437.503906 750.601562 C 437.742188 760.378906 438.1875 770.148438 440.871094 779.664062 C 441.316406 781.246094 441.925781 782.6875 442.890625 784.015625 C 447.625 790.492188 453.675781 794.839844 461.519531 797.152344 C 474.996094 801.113281 488.054688 799.707031 500.984375 795.1875 C 510.328125 791.921875 519.136719 787.4375 527.644531 782.410156 C 532.527344 779.539062 537.738281 777.40625 543.007812 775.4375 C 557.46875 770.042969 571.980469 764.839844 587.121094 761.609375 C 605.34375 757.738281 623.632812 756.535156 641.996094 760.632812 C 662.34375 765.1875 679.464844 775.148438 692.847656 791.269531 C 699.996094 799.886719 705.289062 809.585938 709.097656 820.105469 C 717.53125 843.34375 718.390625 867.203125 714.902344 891.390625 C 711.527344 914.738281 704.1875 936.886719 693.800781 958.007812 C 675.109375 995.960938 648.984375 1028 616.054688 1054.492188 C 597.601562 1069.328125 577.460938 1081.488281 555.90625 1091.308594 C 539.707031 1098.683594 522.972656 1104.433594 506.878906 1108.703125 Z M 502.296875 1094.671875 C 504.636719 1094.070312 506.996094 1093.511719 509.324219 1092.867188 C 524.121094 1088.789062 538.488281 1083.472656 552.382812 1076.972656 C 579.53125 1064.277344 604.011719 1047.664062 625.601562 1026.8125 C 649.1875 1004.039062 668.339844 978.015625 682.34375 948.3125 C 692.261719 927.277344 699.070312 905.304688 701.417969 882.082031 C 703.523438 861.128906 701.972656 840.613281 693.796875 820.917969 C 690.207031 812.273438 685.386719 804.386719 679.03125 797.519531 C 666.003906 783.4375 649.671875 775.886719 630.835938 773.425781 C 617.078125 771.617188 603.488281 773.027344 590 775.859375 C 575.046875 778.992188 560.765625 784.261719 546.714844 790.179688 C 541.703125 792.289062 536.707031 794.460938 531.820312 796.816406 C 528.015625 798.640625 524.410156 800.886719 520.566406 802.675781 C 512.515625 806.425781 504.359375 809.753906 495.660156 811.835938 C 483.835938 814.679688 472.199219 814.597656 460.367188 811.84375 C 448.09375 808.976562 438.539062 802.460938 430.960938 792.507812 C 427.511719 787.996094 425.664062 783.046875 424.929688 777.582031 C 423.917969 770.097656 423.257812 762.5625 423.082031 755.003906 C 422.503906 730.023438 421.707031 705.054688 418.859375 680.195312 C 417.054688 664.367188 414.777344 648.59375 411.328125 633.039062 C 408.585938 620.722656 405.019531 608.640625 400.429688 596.867188 C 395.097656 583.175781 388.339844 570.265625 379.742188 558.367188 C 368.179688 542.351562 354.121094 529.148438 336.292969 520.273438 C 314.855469 509.597656 292.273438 507.070312 268.878906 511.296875 C 249.78125 514.75 232.335938 522.449219 215.980469 532.742188 C 186.953125 550.988281 163.980469 575.25 145.707031 604.089844 C 125.5 635.984375 113.9375 670.96875 109.089844 708.265625 C 103.851562 748.570312 106.296875 788.535156 114.789062 828.171875 C 117.898438 842.664062 121.898438 856.941406 126.667969 871 C 132.070312 886.859375 138.300781 902.363281 145.597656 917.433594 C 163.011719 953.492188 185.535156 985.992188 213.570312 1014.613281 C 232.304688 1033.722656 253.070312 1050.230469 276.242188 1063.695312 C 309.246094 1082.871094 344.664062 1095.109375 382.359375 1100.78125 C 422.730469 1106.839844 462.71875 1104.734375 502.269531 1094.691406 Z M 502.296875 1094.671875 " fill-opacity="1" fill-rule="nonzero"/></g></g></g></svg>