<svg xmlns="http://www.w3.org/2000/svg" xmlns:xlink="http://www.w3.org/1999/xlink" width="1920" zoomAndPan="magnify" viewBox="0 0 1440 809.999993" height="1080" preserveAspectRatio="xMidYMid meet" version="1.0"><defs><clipPath id="42c5be332b"><path d="M 0 673 L 230 673 L 230 810 L 0 810 Z M 0 673 " clip-rule="nonzero"/></clipPath><clipPath id="e03122f45c"><path d="M -191.304688 1020.027344 L -91.875 649.902344 L 277.527344 749.136719 L 178.097656 1119.261719 Z M -191.304688 1020.027344 " clip-rule="nonzero"/></clipPath><clipPath id="d31fc068ff"><path d="M -191.304688 1020.027344 L -91.875 649.902344 L 277.527344 749.136719 L 178.097656 1119.261719 Z M -191.304688 1020.027344 " clip-rule="nonzero"/></clipPath><clipPath id="5908e55486"><path d="M 0 707 L 222 707 L 222 810 L 0 810 Z M 0 707 " clip-rule="nonzero"/></clipPath><clipPath id="e1fd492d3c"><path d="M -191.304688 1020.027344 L -91.875 649.902344 L 277.527344 749.136719 L 178.097656 1119.261719 Z M -191.304688 1020.027344 " clip-rule="nonzero"/></clipPath><clipPath id="138642bb9d"><path d="M -191.304688 1020.027344 L -91.875 649.902344 L 277.527344 749.136719 L 178.097656 1119.261719 Z M -191.304688 1020.027344 " clip-rule="nonzero"/></clipPath><clipPath id="464020ed36"><path d="M 0 735 L 197 735 L 197 810 L 0 810 Z M 0 735 " clip-rule="nonzero"/></clipPath><clipPath id="2f7ec6e26f"><path d="M -191.304688 1020.027344 L -91.875 649.902344 L 277.527344 749.136719 L 178.097656 1119.261719 Z M -191.304688 1020.027344 " clip-rule="nonzero"/></clipPath><clipPath id="7d556a70d5"><path d="M -191.304688 1020.027344 L -91.875 649.902344 L 277.527344 749.136719 L 178.097656 1119.261719 Z M -191.304688 1020.027344 " clip-rule="nonzero"/></clipPath><clipPath id="63b8211dc4"><path d="M 1240 0 L 1440 0 L 1440 173 L 1240 173 Z M 1240 0 " clip-rule="nonzero"/></clipPath><clipPath id="020f0399b1"><path d="M 1399.753906 267.347656 L 1180.28125 -94.261719 L 1513.039062 -296.222656 L 1732.511719 65.386719 Z M 1399.753906 267.347656 " clip-rule="nonzero"/></clipPath><clipPath id="1a7be38997"><path d="M 1399.753906 267.347656 L 1180.28125 -94.261719 L 1513.039062 -296.222656 L 1732.511719 65.386719 Z M 1399.753906 267.347656 " clip-rule="nonzero"/></clipPath><clipPath id="e85931aac7"><path d="M 1265 0 L 1440 0 L 1440 150 L 1265 150 Z M 1265 0 " clip-rule="nonzero"/></clipPath><clipPath id="32e37f4d54"><path d="M 1399.753906 267.347656 L 1180.28125 -94.261719 L 1513.039062 -296.222656 L 1732.511719 65.386719 Z M 1399.753906 267.347656 " clip-rule="nonzero"/></clipPath><clipPath id="25b3aab3e6"><path d="M 1399.753906 267.347656 L 1180.28125 -94.261719 L 1513.039062 -296.222656 L 1732.511719 65.386719 Z M 1399.753906 267.347656 " clip-rule="nonzero"/></clipPath><clipPath id="9e7f9b791e"><path d="M 1291 0 L 1440 0 L 1440 116 L 1291 116 Z M 1291 0 " clip-rule="nonzero"/></clipPath><clipPath id="9bffa6c4a1"><path d="M 1399.753906 267.347656 L 1180.28125 -94.261719 L 1513.039062 -296.222656 L 1732.511719 65.386719 Z M 1399.753906 267.347656 " clip-rule="nonzero"/></clipPath><clipPath id="e746139457"><path d="M 1399.753906 267.347656 L 1180.28125 -94.261719 L 1513.039062 -296.222656 L 1732.511719 65.386719 Z M 1399.753906 267.347656 " clip-rule="nonzero"/></clipPath></defs><g clip-path="url(#42c5be332b)"><g clip-path="url(#e03122f45c)"><g clip-path="url(#d31fc068ff)"><path fill="#0c5f52" d="M -75.449219 751.78125 C -78.429688 733.25 -70.203125 721.609375 -56.988281 706.484375 C -35.90625 682.351562 -17.480469 669.863281 -2.71875 674.054688 C 0.511719 674.972656 3.679688 677.484375 5.921875 681.363281 C 15.03125 697.109375 20.585938 706.304688 23.421875 709.464844 C 28.574219 715.210938 33.945312 719.976562 39.9375 723.578125 C 44.917969 726.570312 50.882812 729.828125 58.535156 731.621094 C 100.121094 741.355469 125.226562 748.226562 133.804688 752.21875 C 152.214844 760.789062 169.640625 770.847656 185.003906 784.4375 C 215.640625 811.535156 231.53125 844.613281 229.476562 883.28125 C 226.863281 932.496094 202.953125 971.726562 160.453125 1000.238281 C 128.242188 1021.847656 86.347656 1023.8125 37.773438 1003 C -18.5 978.886719 -61.433594 934.363281 -89.519531 872.707031 C -113.4375 820.199219 -109.503906 778.410156 -74.515625 749.238281 C -73.164062 748.109375 -71.148438 748.289062 -70.019531 749.640625 C -68.886719 750.996094 -69.070312 753.007812 -70.421875 754.132812 C -102.375 780.777344 -106.953125 819.035156 -83.707031 870.070312 C -56.183594 930.492188 -14.320312 973.738281 40.289062 997.136719 C 87.472656 1017.355469 126.960938 1015.023438 156.890625 994.945312 C 197.886719 967.4375 220.601562 929.964844 223.101562 882.941406 C 225.035156 846.507812 210.183594 815.226562 180.769531 789.210938 C 166.03125 776.171875 149.199219 766.421875 131.113281 758 C 123.28125 754.355469 98.964844 747.636719 57.082031 737.832031 C 48.457031 735.8125 41.8125 732.144531 36.648438 729.042969 C 29.960938 725.027344 24.113281 719.792969 18.667969 713.71875 C 15.265625 709.929688 9.292969 699.941406 0.390625 684.550781 C -1.171875 681.84375 -3.097656 680.578125 -4.464844 680.191406 C -14.835938 677.246094 -30.605469 685.992188 -52.175781 710.679688 C -65.285156 725.6875 -71.628906 735.332031 -69.144531 750.773438 C -68.863281 752.511719 -70.050781 754.148438 -71.789062 754.425781 C -73.53125 754.703125 -75.167969 753.519531 -75.449219 751.78125 Z M -75.449219 751.78125 " fill-opacity="1" fill-rule="nonzero"/></g></g></g><g clip-path="url(#5908e55486)"><g clip-path="url(#e1fd492d3c)"><g clip-path="url(#138642bb9d)"><path fill="#00bf63" d="M -83.230469 785.554688 C -86.210938 767.027344 -77.984375 755.382812 -64.773438 740.261719 C -43.6875 716.125 -25.261719 703.636719 -10.503906 707.832031 C -7.269531 708.75 -4.105469 711.261719 -1.859375 715.140625 C 7.246094 730.886719 12.804688 740.078125 15.640625 743.242188 C 20.792969 748.988281 26.160156 753.753906 32.152344 757.351562 C 37.136719 760.34375 43.101562 763.605469 50.753906 765.394531 C 92.339844 775.132812 117.445312 782 126.023438 785.996094 C 144.433594 794.566406 161.855469 804.625 177.21875 818.210938 C 207.859375 845.308594 223.75 878.390625 221.695312 917.058594 C 219.082031 966.269531 195.171875 1005.5 152.671875 1034.015625 C 120.460938 1055.625 78.5625 1057.585938 29.992188 1036.773438 C -26.28125 1012.660156 -69.214844 968.140625 -97.300781 906.484375 C -121.21875 853.972656 -117.289062 812.1875 -82.296875 783.011719 C -80.945312 781.882812 -78.933594 782.066406 -77.800781 783.417969 C -76.671875 784.769531 -76.851562 786.78125 -78.203125 787.910156 C -110.15625 814.550781 -114.734375 852.8125 -91.488281 903.84375 C -63.964844 964.265625 -22.101562 1007.511719 32.507812 1030.914062 C 79.691406 1051.128906 119.179688 1048.796875 149.105469 1028.71875 C 190.105469 1001.214844 212.820312 963.742188 215.316406 916.714844 C 217.253906 880.28125 202.402344 849 172.988281 822.984375 C 158.25 809.949219 141.417969 800.199219 123.328125 791.773438 C 115.5 788.128906 91.183594 781.410156 49.300781 771.605469 C 40.675781 769.585938 34.027344 765.921875 28.863281 762.816406 C 22.179688 758.800781 16.332031 753.566406 10.882812 747.496094 C 7.484375 743.703125 1.511719 733.714844 -7.390625 718.328125 C -8.957031 715.621094 -10.882812 714.351562 -12.246094 713.964844 C -22.617188 711.019531 -38.390625 719.765625 -59.957031 744.457031 C -73.070312 759.460938 -79.410156 769.105469 -76.925781 784.546875 C -76.648438 786.285156 -77.832031 787.921875 -79.574219 788.199219 C -81.3125 788.476562 -82.953125 787.292969 -83.230469 785.554688 Z M -83.230469 785.554688 " fill-opacity="1" fill-rule="nonzero"/></g></g></g><g clip-path="url(#464020ed36)"><g clip-path="url(#2f7ec6e26f)"><g clip-path="url(#7d556a70d5)"><path fill="#0c5f52" d="M -108.800781 813.628906 C -111.78125 795.101562 -103.554688 783.457031 -90.339844 768.332031 C -69.257812 744.199219 -50.832031 731.710938 -36.074219 735.902344 C -32.839844 736.824219 -29.675781 739.335938 -27.429688 743.214844 C -18.324219 758.960938 -12.765625 768.15625 -9.929688 771.316406 C -4.777344 777.0625 0.589844 781.824219 6.582031 785.425781 C 11.566406 788.417969 17.53125 791.679688 25.183594 793.46875 C 66.769531 803.207031 91.875 810.074219 100.453125 814.070312 C 118.863281 822.640625 136.285156 832.695312 151.652344 846.285156 C 182.289062 873.382812 198.179688 906.464844 196.125 945.132812 C 193.511719 994.34375 169.601562 1033.574219 127.101562 1062.089844 C 94.890625 1083.699219 52.992188 1085.660156 4.421875 1064.847656 C -51.851562 1040.734375 -94.785156 996.214844 -122.871094 934.554688 C -146.789062 882.046875 -142.859375 840.261719 -107.867188 811.085938 C -106.515625 809.957031 -104.5 810.140625 -103.371094 811.492188 C -102.242188 812.84375 -102.421875 814.855469 -103.773438 815.984375 C -135.726562 842.625 -140.304688 880.886719 -117.058594 931.917969 C -89.535156 992.339844 -47.671875 1035.585938 6.9375 1058.988281 C 54.121094 1079.203125 93.609375 1076.871094 123.539062 1056.792969 C 164.535156 1029.289062 187.25 991.816406 189.75 944.789062 C 191.683594 908.355469 176.832031 877.074219 147.417969 851.058594 C 132.679688 838.023438 115.847656 828.273438 97.757812 819.847656 C 89.929688 816.203125 65.613281 809.484375 23.730469 799.679688 C 15.105469 797.660156 8.460938 793.992188 3.296875 790.890625 C -3.390625 786.875 -9.238281 781.640625 -14.6875 775.570312 C -18.085938 771.777344 -24.058594 761.789062 -32.960938 746.402344 C -34.523438 743.695312 -36.449219 742.425781 -37.816406 742.039062 C -48.1875 739.09375 -63.960938 747.839844 -85.527344 772.53125 C -98.640625 787.535156 -104.980469 797.179688 -102.496094 812.621094 C -102.214844 814.359375 -103.402344 815.996094 -105.140625 816.273438 C -106.882812 816.550781 -108.523438 815.367188 -108.800781 813.628906 Z M -108.800781 813.628906 " fill-opacity="1" fill-rule="nonzero"/></g></g></g><g clip-path="url(#63b8211dc4)"><g clip-path="url(#020f0399b1)"><g clip-path="url(#1a7be38997)"><path fill="#0c5f52" d="M 1629.101562 94.203125 C 1623.664062 124.03125 1539.210938 182.507812 1472.679688 170.425781 C 1470.757812 170.078125 1468.851562 169.671875 1466.953125 169.203125 C 1450.152344 165.042969 1437.847656 154.527344 1427.328125 141.847656 C 1421.972656 135.390625 1414.117188 115.328125 1402.941406 81.828125 C 1400.757812 75.289062 1396.15625 70.828125 1391.378906 67.15625 C 1387.53125 64.199219 1382.671875 61.164062 1376.09375 60.308594 C 1325.039062 53.667969 1294.0625 46.9375 1282.257812 40.707031 C 1262.246094 30.140625 1247.597656 16.621094 1243.300781 -4.019531 C 1233.996094 -48.707031 1249.773438 -91.558594 1291.421875 -127.84375 C 1321.476562 -154.027344 1366.734375 -157.644531 1422.398438 -142.917969 C 1480.457031 -127.558594 1526.660156 -97.042969 1562.996094 -54.121094 C 1603.105469 -6.738281 1635.269531 68.617188 1628.96875 95.109375 C 1628.601562 96.660156 1627.042969 97.617188 1625.492188 97.25 C 1623.941406 96.882812 1622.984375 95.328125 1623.351562 93.777344 C 1628.941406 70.289062 1598.671875 -3.042969 1558.585938 -50.390625 C 1522.992188 -92.441406 1477.792969 -122.292969 1420.917969 -137.339844 C 1365.949219 -151.882812 1323.109375 -147.792969 1295.214844 -123.492188 C 1254.851562 -88.328125 1240.148438 -47.496094 1248.953125 -5.199219 C 1252.75 13.027344 1265.648438 25.410156 1284.957031 35.605469 C 1295.652344 41.25 1325.484375 47.90625 1376.84375 54.582031 C 1384.875 55.628906 1390.695312 59.347656 1394.902344 62.582031 C 1399.988281 66.492188 1405.691406 71.824219 1408.417969 80 C 1419.777344 114.058594 1427.285156 132.753906 1431.773438 138.164062 C 1441.902344 150.371094 1453.230469 159.859375 1468.34375 163.597656 C 1470.121094 164.039062 1471.90625 164.421875 1473.714844 164.75 C 1538.175781 176.453125 1618.734375 118.894531 1623.421875 93.171875 C 1623.707031 91.605469 1625.210938 90.5625 1626.777344 90.847656 C 1628.347656 91.132812 1629.386719 92.636719 1629.101562 94.203125 Z M 1629.101562 94.203125 " fill-opacity="1" fill-rule="nonzero"/></g></g></g><g clip-path="url(#e85931aac7)"><g clip-path="url(#32e37f4d54)"><g clip-path="url(#25b3aab3e6)"><path fill="#00bf63" d="M 1653.988281 71.445312 C 1648.550781 101.269531 1564.097656 159.75 1497.566406 147.667969 C 1495.644531 147.320312 1493.734375 146.910156 1491.839844 146.441406 C 1475.039062 142.28125 1462.734375 131.769531 1452.214844 119.089844 C 1446.859375 112.632812 1439.003906 92.570312 1427.828125 59.066406 C 1425.644531 52.527344 1421.042969 48.070312 1416.265625 44.398438 C 1412.417969 41.4375 1407.558594 38.402344 1400.980469 37.546875 C 1349.925781 30.90625 1318.949219 24.179688 1307.144531 17.949219 C 1287.132812 7.382812 1272.484375 -6.140625 1268.1875 -26.78125 C 1258.882812 -71.46875 1274.660156 -114.320312 1316.308594 -150.601562 C 1346.363281 -176.785156 1391.621094 -180.402344 1447.285156 -165.675781 C 1505.34375 -150.320312 1551.546875 -119.800781 1587.882812 -76.878906 C 1627.996094 -29.496094 1660.15625 45.855469 1653.855469 72.347656 C 1653.488281 73.898438 1651.929688 74.859375 1650.378906 74.492188 C 1648.828125 74.125 1647.871094 72.566406 1648.238281 71.015625 C 1653.828125 47.527344 1623.558594 -25.800781 1583.476562 -73.148438 C 1547.878906 -115.199219 1502.679688 -145.050781 1445.804688 -160.097656 C 1390.835938 -174.640625 1347.996094 -170.554688 1320.101562 -146.253906 C 1279.738281 -111.089844 1265.035156 -70.257812 1273.839844 -27.960938 C 1277.636719 -9.734375 1290.535156 2.652344 1309.84375 12.84375 C 1320.539062 18.492188 1350.371094 25.144531 1401.730469 31.824219 C 1409.761719 32.867188 1415.582031 36.589844 1419.789062 39.820312 C 1424.875 43.734375 1430.578125 49.066406 1433.304688 57.238281 C 1444.664062 91.296875 1452.171875 109.996094 1456.660156 115.402344 C 1466.789062 127.613281 1478.117188 137.097656 1493.230469 140.839844 C 1495.003906 141.277344 1496.796875 141.660156 1498.601562 141.988281 C 1563.0625 153.695312 1643.621094 96.136719 1648.308594 70.414062 C 1648.59375 68.84375 1650.097656 67.804688 1651.664062 68.089844 C 1653.234375 68.375 1654.273438 69.875 1653.988281 71.445312 Z M 1653.988281 71.445312 " fill-opacity="1" fill-rule="nonzero"/></g></g></g><g clip-path="url(#9e7f9b791e)"><g clip-path="url(#9bffa6c4a1)"><g clip-path="url(#e746139457)"><path fill="#0c5f52" d="M 1680.289062 37.351562 C 1674.851562 67.179688 1590.402344 125.65625 1523.867188 113.578125 C 1521.945312 113.226562 1520.039062 112.820312 1518.140625 112.351562 C 1501.339844 108.191406 1489.035156 97.675781 1478.515625 85 C 1473.160156 78.539062 1465.304688 58.480469 1454.128906 24.976562 C 1451.949219 18.4375 1447.34375 13.976562 1442.570312 10.304688 C 1438.71875 7.347656 1433.863281 4.3125 1427.28125 3.457031 C 1376.230469 -3.183594 1345.25 -9.914062 1333.449219 -16.140625 C 1313.433594 -26.707031 1298.789062 -40.230469 1294.492188 -60.871094 C 1285.183594 -105.558594 1300.960938 -148.410156 1342.609375 -184.691406 C 1372.664062 -210.875 1417.921875 -214.496094 1473.589844 -199.769531 C 1531.644531 -184.410156 1577.851562 -153.890625 1614.183594 -110.972656 C 1654.296875 -63.589844 1686.460938 11.765625 1680.15625 38.257812 C 1679.789062 39.808594 1678.230469 40.769531 1676.679688 40.398438 C 1675.128906 40.03125 1674.171875 38.476562 1674.542969 36.925781 C 1680.128906 13.4375 1649.859375 -59.890625 1609.777344 -107.242188 C 1574.179688 -149.289062 1528.984375 -179.144531 1472.109375 -194.1875 C 1417.140625 -208.730469 1374.296875 -204.644531 1346.402344 -180.34375 C 1306.039062 -145.179688 1291.335938 -104.347656 1300.140625 -62.050781 C 1303.9375 -43.824219 1316.835938 -31.441406 1336.148438 -21.246094 C 1346.84375 -15.597656 1376.671875 -8.945312 1428.03125 -2.265625 C 1436.0625 -1.222656 1441.886719 2.5 1446.089844 5.730469 C 1451.175781 9.640625 1456.878906 14.972656 1459.605469 23.148438 C 1470.964844 57.207031 1478.476562 75.90625 1482.960938 81.3125 C 1493.09375 93.523438 1504.417969 103.007812 1519.53125 106.75 C 1521.308594 107.1875 1523.09375 107.570312 1524.902344 107.898438 C 1589.363281 119.601562 1669.921875 62.046875 1674.609375 36.320312 C 1674.894531 34.753906 1676.398438 33.714844 1677.96875 33.996094 C 1679.535156 34.28125 1680.574219 35.785156 1680.289062 37.351562 Z M 1680.289062 37.351562 " fill-opacity="1" fill-rule="nonzero"/></g></g></g></svg>